<svg xmlns="http://www.w3.org/2000/svg" width="160" height="20" fill="none">
    <path fill="currentcolor" d="M39.97 11.41c-.048.525-.119 1.054-.21 1.577a14.122 14.122 0 0 1-.369 1.553 9.01 9.01 0 0 1-.538 1.38 5.008 5.008 0 0 1-1.104 1.537c-.464.428-.99.784-1.561 1.056-.431.206-.882.366-1.346.48-.462.112-.93.193-1.404.24-.47.046-.951.07-1.443.07H22.567V.5h8.014c.773.002 1.56.04 2.364.114.782.07 1.552.236 2.294.492.722.252 1.4.613 2.012 1.071.612.46 1.118 1.069 1.516 1.82.435.847.756 1.815.963 2.904.2 1.003.304 2.022.312 3.045 0 .45-.024.938-.07 1.464h-.002ZM35.355 7.61c-.163-.817-.43-1.529-.81-2.139-.452-.72-1.03-1.182-1.727-1.38a8.15 8.15 0 0 0-2.24-.3H26.58v12.223h3.997a9.144 9.144 0 0 0 1.516-.14 4.808 4.808 0 0 0 1.433-.458 2.705 2.705 0 0 0 1.022-1.01c.266-.458.475-.946.62-1.455a9.875 9.875 0 0 0 .325-1.595c.064-.477.098-.957.101-1.438a11.91 11.91 0 0 0-.24-2.308Zm11.684 11.674a76.03 76.03 0 0 1-1.549-.016 6.12 6.12 0 0 1-1.516-.209c-.87-.225-1.534-.71-1.989-1.451a4.468 4.468 0 0 1-.68-2.383c.003-.669.143-1.33.411-1.944a3.868 3.868 0 0 1 1.237-1.582c.266-.196.564-.343.882-.435.35-.104.707-.18 1.07-.226.37-.046.733-.074 1.092-.084.363-.01.693-.014.998-.013h4.665l-.003-.225c0-.488-.065-.88-.196-1.17a1.504 1.504 0 0 0-.58-.677 2.282 2.282 0 0 0-.922-.31 9.443 9.443 0 0 0-1.189-.073h-6.407V5.554h6.406c.264 0 .525.003.78.013.256.01.514.015.779.014 1.17.04 2.168.282 2.996.734.828.452 1.427 1.269 1.805 2.455.146.447.236.91.267 1.38.028.452.045.921.041 1.412l.003 7.721h-8.401Zm4.62-5.404h-5.035c-.398 0-.735.102-1.01.307-.276.206-.413.523-.412.954 0 .3.06.528.185.688.125.16.292.28.483.349.215.078.44.125.669.14.246.018.484.027.71.027h4.408l.001-2.465Zm12.156 5.423c-.941 0-1.791-.163-2.54-.495-.748-.331-1.308-.963-1.665-1.905a5.866 5.866 0 0 1-.281-1.368 16.99 16.99 0 0 1-.056-1.398V8.49l-2.41-.002V5.554h2.408V.5h3.778v5.054h3.515v2.935l-3.514.003v4.995c0 .301.005.677.013 1.129.009.451.11.809.3 1.073.165.223.39.395.65.495.273.105.559.171.85.197.302.027.605.032.907.014.304-.018.567-.028.794-.029v2.935l-2.749.001Zm9.544-.019c-.51 0-1.026-.003-1.547-.015a6.217 6.217 0 0 1-1.52-.212c-.87-.224-1.532-.707-1.986-1.45a4.483 4.483 0 0 1-.681-2.383c.003-.669.144-1.33.412-1.943a3.84 3.84 0 0 1 1.237-1.58c.266-.196.565-.343.882-.434a6.641 6.641 0 0 1 1.067-.229c.369-.044.734-.073 1.093-.083.36-.01.693-.012.996-.014l4.667.002v-.227c0-.488-.066-.879-.2-1.17a1.504 1.504 0 0 0-.58-.677 2.28 2.28 0 0 0-.92-.311 9.372 9.372 0 0 0-1.191-.07H68.68v-2.93h6.405c.265 0 .525.003.78.012.254.01.514.015.78.014 1.17.039 2.168.283 2.995.733s1.429 1.269 1.806 2.455c.145.448.235.911.267 1.38.033.453.045.922.045 1.413v7.721l-8.4-.002Zm4.62-5.405h-5.036c-.398 0-.734.101-1.01.307s-.412.525-.412.955c0 .3.06.529.186.687.124.16.292.28.483.348.214.08.439.127.667.142.248.017.486.028.713.028h4.406l.003-2.467Z"></path>
    <path fill="#1D9AF0" d="M97.416 19.301a5.306 5.306 0 0 1-.282-1.324c-.038-.451-.085-.9-.142-1.352-.097-.864-.249-1.584-.468-2.156-.22-.572-.525-1.03-.921-1.364-.396-.335-.899-.577-1.504-.72-.605-.143-1.343-.212-2.214-.212h-3.23V19.3H84.64V.5h9.237c.696 0 1.412.023 2.14.07A9.893 9.893 0 0 1 98.1.922c1.116.32 1.986.922 2.607 1.806.622.884.934 1.889.937 3.015-.002 1.297-.277 2.43-.825 3.397-.548.968-1.473 1.659-2.776 2.072.413.151.768.296 1.062.437.28.134.543.305.778.508.234.204.436.442.6.705.196.33.366.673.507 1.028.263.607.412 1.256.439 1.916.03.658.081 1.317.159 1.973a7.86 7.86 0 0 0 .339 1.522h-4.51Zm-.445-14.31a1.781 1.781 0 0 0-.61-.736 2.35 2.35 0 0 0-.919-.361 6.17 6.17 0 0 0-1.159-.105h-5.63v5.094h5.628c.923 0 1.64-.188 2.149-.563.512-.377.764-1.077.763-2.097 0-.501-.075-.912-.223-1.23v-.001Zm20.087 10.57a6.119 6.119 0 0 1-1.529 2.16 6.562 6.562 0 0 1-2.323 1.325c-.895.3-1.88.453-2.955.453-2.301 0-4.084-.626-5.349-1.877-1.266-1.251-1.898-3.025-1.897-5.32 0-1.072.179-2.041.538-2.907a6.112 6.112 0 0 1 1.5-2.189c.642-.592 1.412-1.048 2.308-1.369.895-.317 1.87-.479 2.929-.478 2.302 0 4.099.63 5.391 1.891 1.291 1.26 1.938 3.049 1.94 5.365 0 1.109-.186 2.093-.554 2.947h.001Zm-3.517-4.76a3.584 3.584 0 0 0-.561-1.307 2.719 2.719 0 0 0-1.057-.875c-.437-.214-.978-.32-1.618-.322-.674 0-1.233.111-1.672.334-.42.206-.779.517-1.04.904a3.62 3.62 0 0 0-.535 1.337 8.14 8.14 0 0 0-.155 1.656 6.542 6.542 0 0 0 .182 1.6c.109.462.31.897.591 1.28.28.367.648.66 1.07.849.439.203.982.304 1.617.305.635.001 1.173-.11 1.605-.334a2.855 2.855 0 0 0 1.042-.892 3.49 3.49 0 0 0 .549-1.322 8.277 8.277 0 0 0 .156-1.6 7.423 7.423 0 0 0-.172-1.615l-.002.002Zm19.535 4.888c-.472 1.052-1.245 1.917-2.319 2.595-.775.491-1.552.783-2.345.879-.835.095-1.675.141-2.516.138h-6.167V.5h3.78v5.053h3.365c2.173.001 3.867.57 5.082 1.708 1.215 1.137 1.824 2.798 1.828 4.984 0 1.242-.236 2.39-.708 3.444Zm-3.945-6.18c-.581-.677-1.511-1.016-2.79-1.017h-2.832v7.873h2.832c1.223 0 2.139-.38 2.748-1.142.61-.762.915-1.717.916-2.865 0-1.22-.293-2.174-.873-2.85h-.001Zm19.914 6.051a6.066 6.066 0 0 1-1.531 2.159 6.633 6.633 0 0 1-2.319 1.326c-.897.302-1.883.453-2.959.453-2.302 0-4.085-.626-5.348-1.878-1.264-1.251-1.896-3.025-1.895-5.32-.002-1.072.176-2.041.535-2.906a6.117 6.117 0 0 1 1.503-2.187c.64-.592 1.408-1.048 2.303-1.369.899-.32 1.873-.479 2.931-.48 2.303 0 4.1.63 5.393 1.891 1.293 1.261 1.939 3.048 1.937 5.362 0 1.11-.184 2.093-.551 2.95h.001Zm-3.515-4.76a3.596 3.596 0 0 0-.564-1.309 2.744 2.744 0 0 0-1.054-.876c-.441-.213-.981-.32-1.62-.32-.673 0-1.234.113-1.673.334-.421.206-.78.518-1.041.905-.265.406-.447.86-.535 1.336a8.35 8.35 0 0 0-.153 1.655 6.792 6.792 0 0 0 .179 1.6c.109.461.31.896.591 1.28.279.367.648.66 1.07.848.439.205.977.306 1.617.307.641.001 1.172-.109 1.603-.335.416-.206.774-.51 1.042-.887.273-.398.46-.848.55-1.321a8.275 8.275 0 0 0 .153-1.602 7.238 7.238 0 0 0-.167-1.614h.002Zm11.72 8.501c-.942 0-1.787-.164-2.542-.494-.754-.33-1.306-.962-1.662-1.904a5.705 5.705 0 0 1-.283-1.367 17.511 17.511 0 0 1-.057-1.399V8.491h-2.408V5.554h2.408V.5h3.779v5.054H160V8.49h-3.513v4.997c0 .3.003.677.013 1.13.01.452.109.807.298 1.072.165.223.392.395.652.494.273.104.559.17.851.196.301.03.604.035.906.015.303-.019.565-.029.792-.029v2.935h-2.749Z"></path>
    <path fill="currentcolor" d="M11.073 5.549c-.433 0-.785.52-.785 1.164 0 .643.352 1.165.785 1.165.434 0 .79-.523.79-1.165 0-.643-.351-1.164-.787-1.164h-.003Zm-5.407 0c-.435 0-.787.52-.787 1.164 0 .643.352 1.165.787 1.165.434 0 .786-.523.786-1.165 0-.643-.352-1.164-.786-1.164Zm10.488-1.452-.063-.01v-1.41a2.056 2.056 0 0 0-.607-1.451 2.077 2.077 0 0 0-1.458-.604H2.712a2.077 2.077 0 0 0-1.459.603 2.057 2.057 0 0 0-.607 1.452v1.41l-.064.01A.711.711 0 0 0 0 4.78v2.296a.704.704 0 0 0 .582.683l.064.01v2.308c.002.544.22 1.066.607 1.451s.911.602 1.459.603h3.23v.544h-.278l-1.015.407v.154h-.381v.396c-.381.02-.74.186-1.003.461-.262.275-.41.64-.41 1.02v.45H2.7c-.188.188-.295.292-.482.48v1.323l.482.48h1.01l.206-.206v-.677h.397V15.87a.306.306 0 0 0-.308-.307h-.189v-.45a.523.523 0 0 1 .45-.519v.53h.438v1.59l.532.6v.821c-.408 0-.855.039-1.44.54v.823h4.328v-1.603h.527V19.5h4.33v-.825c-.584-.501-1.03-.54-1.44-.54v-.822l.553-.6v-1.59h.417v-.532a.53.53 0 0 1 .46.52v.451h-.19a.31.31 0 0 0-.284.19.305.305 0 0 0-.024.117v1.095h.398v.678l.206.206h1.01c.188-.189.293-.293.482-.48v-1.325l-.482-.48h-.154v-.45c0-.382-.148-.749-.413-1.025a1.496 1.496 0 0 0-1.01-.458v-.394h-.38v-.15l-1.017-.408h-.277v-.545h3.189a2.076 2.076 0 0 0 1.458-.604c.387-.385.605-.906.607-1.45V7.77l.063-.01a.711.711 0 0 0 .583-.684V4.78a.708.708 0 0 0-.582-.683Zm-.601 5.508a1.645 1.645 0 0 1-.486 1.16c-.31.309-.729.482-1.167.484H2.837a1.661 1.661 0 0 1-1.165-.484 1.645 1.645 0 0 1-.485-1.16V3.029c.002-.435.177-.852.486-1.16.31-.307.73-.48 1.167-.481H13.9c.438 0 .857.174 1.167.482.31.307.484.724.486 1.16v6.575Z"></path>
</svg>